#!OML:ASF H:\BreakDance\Project 1\Capture day 1\Session 1\Male.ASF
:FULLY-SPECIFIED
:DEGREES
593
root 2.19445 23.6572 -4.50765 -584.459 -136.742 363.119
lowerback 13.0272 0.40383 10.8952
upperback 0.989251 1.99406 -0.642038
thorax -5.87185 0.655102 -7.20789
lowerneck -15.8623 3.07487 2.79377
upperneck -17.4302 1.08359 -18.7425
head -2.34231 0.0156363 -6.3189
rclavicle 3.61788e-014 1.47101e-014
rhumerus 53.145 -10.9496 -41.1475
rradius 29.3299
rwrist -6.0528
rhand -36.7273 -12.0672
rfingers 7.12502
rthumb -9.81152 -41.8186
lclavicle 3.61788e-014 1.47101e-014
lhumerus 52.4362 -13.4678 48.5507
lradius 28.6627
lwrist 23.9114
lhand -33.9038 -21.4909
lfingers 7.12502
lthumb -7.0867 8.37047
rfemur -44.8219 -14.8806 3.94846
rtibia 93.0629
rfoot -22.3826 0.407187
rtoes 19.2659
lfemur -40.4039 7.94765 -17.6626
ltibia 29.2564
lfoot 4.52524 2.21471
ltoes -37.5459
594
root 2.21796 23.5313 -4.57107 -582.266 -136.56 360.78
lowerback 13.6455 0.417076 10.5661
upperback 1.27209 2.02071 -0.496595
thorax -5.92095 0.683012 -6.88352
lowerneck -15.4514 2.5943 3.46814
upperneck -18.8972 0.16674 -17.5829
head -2.97582 -0.483048 -6.11722
rclavicle -1.64296e-013 6.4605e-016
rhumerus 56.6591 -13.9452 -42.3857
rradius 28.0398
rwrist -5.37028
rhand -37.1762 -12.7607
rfingers 7.12502
rthumb -10.2446 -42.4913
lclavicle -1.64296e-013 6.4605e-016
lhumerus 56.1369 -11.2384 48.8008
lradius 26.7941
lwrist 25.6672
lhand -33.7327 -19.8157
lfingers 7.12502
lthumb -6.92156 10.0512
rfemur -49.3307 -14.9905 2.94034
rtibia 91.5614
rfoot -22.6527 0.136372
rtoes 19.9227
lfemur -38.367 7.52354 -17.9681
ltibia 28.1937
lfoot 5.37759 3.28173
ltoes -36.6789
595
root 2.24788 23.3828 -4.63251 -580.171 -136.224 358.695
lowerback 14.0783 0.509227 10.0446
upperback 1.56427 2.09737 -0.337857
thorax -5.85485 0.746624 -6.43743
lowerneck -15.1107 2.13896 3.98564
upperneck -20.2922 -0.607624 -16.2688
head -3.56723 -0.927287 -5.82156
rclavicle 1.5873e-013 6.55989e-015
rhumerus 60.3906 -16.6986 -44.1047
rradius 26.7929
rwrist -4.39237
rhand -37.5881 -13.6463
rfingers 7.12502
rthumb -10.642 -43.3568
lclavicle 1.5873e-013 6.55989e-015
lhumerus 59.8182 -8.85175 49.8345
lradius 24.8239
lwrist 26.887
lhand -33.6314 -18.2058
lfingers 7.12502
lthumb -6.82374 11.6642
rfemur -53.8914 -15.1893 2.02036
rtibia 89.8882
rfoot -22.8685 0.131697
rtoes 20.0249
lfemur -36.0206 7.08774 -17.9765
ltibia 26.91
lfoot 6.33278 4.04226
ltoes -36.3613
596
root 2.28081 23.209 -4.69334 -578.085 -135.731 356.752
lowerback 14.2982 0.653773 9.38513
upperback 1.84812 2.19756 -0.165383
thorax -5.68417 0.829082 -5.89596
lowerneck -14.941 1.7303 4.4039
upperneck -21.5016 -1.22693 -14.9296
head -4.05911 -1.31447 -5.48559
rclavicle 4.83047e-014 3.4191e-014
rhumerus 64.1654 -19.0481 -46.0021
rradius 25.7566
rwrist -3.39961
rhand -37.9872 -14.7497
rfingers 7.12502
rthumb -11.0269 -44.4401
lclavicle 4.83047e-014 3.4191e-014
lhumerus 63.4509 -6.43959 51.6168
lradius 22.9074
lwrist 27.6428
lhand -33.6564 -16.6999
lfingers 7.12502
lthumb -6.8479 13.1694
rfemur -58.4481 -15.486 1.27125
rtibia 87.9734
rfoot -23.0181 0.276805
rtoes 19.5107
lfemur -33.3462 6.56767 -17.6906
ltibia 25.2648
lfoot 7.54119 4.34579
ltoes -36.3284
597
root 2.31246 23.0092 -4.75456 -575.921 -135.114 354.824
lowerback 14.3516 0.789386 8.71798
upperback 2.08369 2.27069 -0.0262873
thorax -5.48096 0.896946 -5.37781
lowerneck -14.9342 1.37958 4.8181
upperneck -22.4851 -1.70716 -13.6495
head -4.43895 -1.64849 -5.15725
rclavicle 7.4743e-014 2.78299e-014
rhumerus 67.7147 -20.9054 -47.7383
rradius 25.0524
rwrist -2.73993
rhand -38.4002 -16.0246
rfingers 7.12502
rthumb -11.4252 -45.6933
lclavicle 7.4743e-014 2.78299e-014
lhumerus 66.993 -4.1745 53.8455
lradius 21.2126
lwrist 28.106
lhand -33.803 -15.3028
lfingers 7.12502
lthumb -6.98942 14.5618
rfemur -62.9511 -15.898 0.753829
rtibia 85.7828
rfoot -23.0963 0.289789
rtoes 18.5852
lfemur -30.2751 5.90439 -17.1433
ltibia 23.0609
lfoot 9.05057 4.21523
ltoes -36.9017
598
root 2.34102 22.7859 -4.81305 -573.686 -134.491 352.755
lowerback 14.3928 0.829171 8.19925
upperback 2.25608 2.24305 0.027241
thorax -5.34663 0.906536 -5.01996
lowerneck -14.9748 1.0753 5.29195
upperneck -23.2711 -2.08762 -12.4549
head -4.73706 -1.93918 -4.85974
rclavicle -5.56597e-015 3.57812e-014
rhumerus 70.7679 -22.3142 -48.9658
rradius 24.7008
rwrist -2.64585
rhand -38.9623 -17.391
rfingers 7.12502
rthumb -11.9673 -47.0289
lclavicle -5.56597e-015 3.57812e-014
lhumerus 70.3957 -2.22745 56.0952
lradius 19.8486
lwrist 28.4656
lhand -33.9922 -13.9984
lfingers 7.12502
lthumb -7.17204 15.86
rfemur -67.1441 -16.4837 0.412822
rtibia 83.2838
rfoot -23.1259 0.0954612
rtoes 17.5912
lfemur -26.5873 5.00323 -16.406
ltibia 20.0353
lfoot 10.9086 3.85144
ltoes -38.0317
599
root 2.36369 22.5415 -4.8651 -571.468 -133.94 350.482
lowerback 14.6044 0.714504 7.97632
upperback 2.39717 2.0714 -0.0442833
thorax -5.34263 0.833281 -4.94504
lowerneck -15.037 0.802431 5.79892
upperneck -23.888 -2.39256 -11.3077
head -4.96985 -2.19271 -4.57824
rclavicle -1.63003e-013 5.56597e-015
rhumerus 73.2762 -23.4493 -49.586
rradius 24.6011
rwrist -2.93043
rhand -39.7112 -18.7682
rfingers 7.12502
rthumb -12.6894 -48.3627
lclavicle -1.63003e-013 5.56597e-015
lhumerus 73.2489 -0.719727 57.3789
lradius 19.5715
lwrist 29.3901
lhand -34.2014 -12.4057
lfingers 7.12502
lthumb -7.37401 17.4458
rfemur -70.8383 -17.2572 0.176135
rtibia 80.479
rfoot -23.1741 -0.405354
rtoes 17.0149
lfemur -21.8933 3.84511 -15.5755
ltibia 15.6728
lfoot 13.2798 3.54152
ltoes -39.7138
600
root 2.38281 22.2793 -4.9079 -569.341 -133.478 348
lowerback 15.0705 0.433788 8.08061
upperback 2.59584 1.74714 -0.211269
thorax -5.42232 0.67739 -5.13634
lowerneck -15.2796 0.553568 6.21527
upperneck -24.3485 -2.64162 -10.195
head -5.11972 -2.41795 -4.28984
rclavicle 7.15625e-015 -3.65764e-014
rhumerus 75.446 -24.5212 -49.7098
rradius 24.5916
rwrist -3.14412
rhand -40.573 -20.2366
rfingers 7.12502
rthumb -13.5201 -49.7777
lclavicle 7.15625e-015 -3.65764e-014
lhumerus 76.0787 0.584051 58.2137
lradius 19.3963
lwrist 30.1131
lhand -34.3168 -10.8872
lfingers 7.12502
lthumb -7.4854 18.9603
rfemur -73.9334 -18.173 0.00375749
rtibia 77.3861
rfoot -23.3352 -1.17707
rtoes 16.9373
lfemur -15.1292 2.97228 -14.8429
ltibia 8.11414
lfoot 17.1257 3.17342
ltoes -41.6353
601
root 2.39822 22.0009 -4.94067 -567.369 -133.077 345.314
lowerback 15.8501 0.00197771 8.52757
upperback 2.87515 1.3014 -0.455973
thorax -5.59512 0.454333 -5.5876
lowerneck -15.6797 0.30453 6.50644
upperneck -24.6611 -2.87008 -9.09194
head -5.19515 -2.62563 -3.98202
rclavicle 8.66701e-014 -3.18055e-015
rhumerus 77.3695 -25.651 -49.4945
rradius 24.5057
rwrist -2.88578
rhand -41.4874 -21.8827
rfingers 7.12502
rthumb -14.4013 -51.3631
lclavicle 8.66701e-014 -3.18055e-015
lhumerus 78.9692 1.67272 58.7398
lradius 19.128
lwrist 30.2869
lhand -34.3413 -9.4703
lfingers 7.12502
lthumb -7.50898 20.3764
rfemur -76.4071 -19.1747 -0.104041
rtibia 74.031
rfoot -23.678 -2.12403
rtoes 17.454
lfemur -7.66121 2.15525 -14.0143
ltibia -9.54166e-015
lfoot 21.305 2.94889
ltoes -43.3775
602
root 2.41395 21.7096 -4.96242 -565.59 -132.679 342.475
lowerback 16.9315 -0.536421 9.27725
upperback 3.24598 0.795321 -0.763667
thorax -5.84217 0.196356 -6.26846
lowerneck -16.2175 0.0400957 6.6787
upperneck -24.8556 -3.11146 -8.01902
head -5.21055 -2.82968 -3.66448
rclavicle -1.4074e-013 2.22639e-014
rhumerus 79.1131 -26.9431 -49.0547
rradius 24.2323
rwrist -1.94653
rhand -42.3673 -23.7081
rfingers 7.12502
rthumb -15.249 -53.126
lclavicle -1.4074e-013 2.22639e-014
lhumerus 81.9294 2.51603 58.9114
lradius 18.7209
lwrist 29.9092
lhand -34.2706 -8.19929
lfingers 7.12502
lthumb -7.44075 21.6499
rfemur -78.3046 -20.1851 -0.144888
rtibia 70.4241
rfoot -24.0925 -3.22932
rtoes 18.3781
lfemur -4.19131 1.31735 -13.1768
ltibia -4.45278e-014
lfoot 21.7369 2.23493
ltoes -43.4488
603
root 2.43169 21.4055 -4.97692 -563.988 -132.207 339.6
lowerback 18.1833 -1.11467 10.1453
upperback 3.67689 0.286297 -1.11132
thorax -6.12388 -0.0634527 -7.05681
lowerneck -16.8545 -0.266198 6.82281
upperneck -24.8967 -3.42135 -7.01139
head -5.16461 -3.05854 -3.36562
rclavicle -1.41535e-013 -1.11319e-014
rhumerus 80.7486 -28.3544 -48.6737
rradius 23.764
rwrist -0.237533
rhand -43.1112 -25.5502
rfingers 7.12502
rthumb -15.9654 -54.9122
lclavicle -1.41535e-013 -1.11319e-014
lhumerus 84.8735 3.13991 58.6651
lradius 18.2132
lwrist 29.149
lhand -34.1136 -7.10668
lfingers 7.12502
lthumb -7.28923 22.7478
rfemur -79.7982 -21.0983 -0.132931
rtibia 66.5787
rfoot -24.6079 -4.45321
rtoes 19.4051
lfemur -0.403918 0.635077 -12.3318
ltibia -3.18055e-015
lfoot 21.9456 1.89472
ltoes -41.132
604
root 2.45347 21.0886 -4.98819 -562.532 -131.592 336.826
lowerback 19.4591 -1.64457 10.8863
upperback 4.11495 -0.163013 -1.46007
thorax -6.40767 -0.290212 -7.78197
lowerneck -17.4612 -0.561627 6.97236
upperneck -24.8851 -3.74796 -6.1982
head -5.10478 -3.28079 -3.13335
rclavicle 6.2816e-014 1.90833e-014
rhumerus 82.2827 -29.7703 -48.4849
rradius 23.1676
rwrist 2.00453
rhand -43.5945 -27.1644
rfingers 7.12502
rthumb -16.4308 -56.4886
lclavicle 6.2816e-014 1.90833e-014
lhumerus 87.6671 3.60016 58.0265
lradius 17.6964
lwrist 28.2509
lhand -33.8585 -6.21811
lfingers 7.12502
lthumb -7.04299 23.6447
rfemur -81.0653 -21.8236 -0.105063
rtibia 62.5019
rfoot -25.1545 -5.83222
rtoes 20.0916
lfemur 3.56726 0.225611 -11.5388
ltibia 3.18055e-015
lfoot 21.9128 1.77063
ltoes -35.3659
605
root 2.48239 20.7602 -4.99892 -561.198 -130.764 334.29
lowerback 20.6519 -2.05436 11.3314
upperback 4.50085 -0.510514 -1.8247
thorax -6.68727 -0.463761 -8.37482
lowerneck -17.9859 -0.842082 7.12259
upperneck -24.8118 -4.06639 -5.50817
head -5.03395 -3.48265 -2.94245
rclavicle -3.97569e-014 4.13472e-014
rhumerus 83.7397 -31.0715 -48.6181
rradius 22.5134
rwrist 4.37233
rhand -43.8106 -28.1358
rfingers 7.12502
rthumb -16.6389 -57.4426
lclavicle -3.97569e-014 4.13472e-014
lhumerus 90.1878 3.97233 56.9887
lradius 17.2851
lwrist 27.4981
lhand -33.4712 -5.51373
lfingers 7.12502
lthumb -6.66909 24.3612
rfemur -82.3007 -22.282 -0.114605
rtibia 58.231
rfoot -25.6554 -7.43988
rtoes 20.3039
lfemur 7.59603 0.206652 -10.8602
ltibia 6.36111e-014
lfoot 21.7947 1.76557
ltoes -25.3179
606
root 2.51739 20.4202 -5.01149 -560.04 -129.755 332.059
lowerback 21.7755 -2.32197 11.3926
upperback 4.81156 -0.757843 -2.21733
thorax -6.99086 -0.587476 -8.80094
lowerneck -18.379 -1.09932 7.31164
upperneck -24.7034 -4.37341 -4.97286
head -4.9689 -3.66481 -2.80843
rclavicle 4.21423e-014 9.54166e-015
rhumerus 85.0395 -32.1944 -48.9609
rradius 21.8911
rwrist 6.30719
rhand -43.8931 -28.2247
rfingers 7.12502
rthumb -16.7183 -57.5248
lclavicle 4.21423e-014 9.54166e-015
lhumerus 92.3803 4.26626 55.7179
lradius 17.0622
lwrist 27.0333
lhand -33.0051 -4.95961
lfingers 7.12502
lthumb -6.21918 24.9291
rfemur -83.4956 -22.4815 -0.279941
rtibia 53.8375
rfoot -26.0555 -9.36868
rtoes 19.9608
lfemur 11.6718 0.556505 -10.3677
ltibia 1.27222e-014
lfoot 21.8296 1.82004
ltoes -11.8763
607
root 2.56081 20.0694 -5.02721 -559.106 -128.605 330.163
lowerback 22.8535 -2.4409 11.0143
upperback 5.05532 -0.920374 -2.62265
thorax -7.32197 -0.667755 -9.00792
lowerneck -18.676 -1.32855 7.50585
upperneck -24.5558 -4.66007 -4.58488
head -4.90286 -3.82315 -2.72307
rclavicle -1.145e-013 6.99722e-014
rhumerus 86.2687 -33.091 -49.547
rradius 21.3357
rwrist 7.61055
rhand -43.8585 -27.4576
rfingers 7.12502
rthumb -16.685 -56.7605
lclavicle -1.145e-013 6.99722e-014
lhumerus 94.256 4.49672 54.4772
lradius 17.0583
lwrist 26.8549
lhand -32.5565 -4.54107
lfingers 7.12502
lthumb -5.78601 25.3599
rfemur -84.6136 -22.4333 -0.740028
rtibia 49.4266
rfoot -26.3321 -11.6682
rtoes 19.558
lfemur 15.7579 1.23159 -10.1226
ltibia -1.90833e-014
lfoot 22.3055 1.84078
ltoes 0.77809
